<svg xmlns="http://www.w3.org/2000/svg" width="520" height="400" viewBox="0 0 520 400" font-family="sans-serif"><rect width="520" height="400" fill="white"/><text x="260.0" y="22" text-anchor="middle" font-size="14" font-weight="bold">Performance estimator reliability (SIMULATED learners)</text><text x="260.0" y="40" text-anchor="middle" font-size="11" fill="#555">grounded in real held-out GRE-Math gold pool N=50 &#183; Brier=0.249 &#183; AUC=0.664 &#183; acc=0.627 &#183; N_attempts=40500</text><rect x="56" y="80" width="408" height="264" fill="none" stroke="#999" stroke-width="1"/><line x1="56" y1="344" x2="464" y2="80" stroke="#bbb" stroke-width="1" stroke-dasharray="4 3"/><circle cx="56.0" cy="279.4" r="5.2" fill="#2b6cb0" fill-opacity="0.65" stroke="#1a365d"/><circle cx="137.6" cy="251.4" r="7.6" fill="#2b6cb0" fill-opacity="0.65" stroke="#1a365d"/><circle cx="219.2" cy="227.6" r="8.7" fill="#2b6cb0" fill-opacity="0.65" stroke="#1a365d"/><circle cx="300.8" cy="195.3" r="9.0" fill="#2b6cb0" fill-opacity="0.65" stroke="#1a365d"/><circle cx="382.4" cy="174.0" r="7.8" fill="#2b6cb0" fill-opacity="0.65" stroke="#1a365d"/><circle cx="464.0" cy="144.0" r="5.4" fill="#2b6cb0" fill-opacity="0.65" stroke="#1a365d"/><polyline points="56.0,279.4 137.6,251.4 219.2,227.6 300.8,195.3 382.4,174.0 464.0,144.0" fill="none" stroke="#2b6cb0" stroke-width="1.5"/><text x="260.0" y="386" text-anchor="middle" font-size="12">predicted P(correct) (Wilson point p&#770;)</text><text x="16" y="212.0" text-anchor="middle" font-size="12" transform="rotate(-90 16 212.0)">empirical held-out accuracy</text><text x="56.0" y="360.0" text-anchor="middle" font-size="10" fill="#555">0.0</text><text x="48" y="348.0" text-anchor="end" font-size="10" fill="#555">0.0</text><text x="260.0" y="360.0" text-anchor="middle" font-size="10" fill="#555">0.5</text><text x="48" y="216.0" text-anchor="end" font-size="10" fill="#555">0.5</text><text x="464.0" y="360.0" text-anchor="middle" font-size="10" fill="#555">1.0</text><text x="48" y="84.0" text-anchor="end" font-size="10" fill="#555">1.0</text></svg>