<svg xmlns="http://www.w3.org/2000/svg" width="720" height="416" viewBox="0 0 720 416" font-family="sans-serif"><rect width="720" height="416" fill="white"/><text x="360.0" y="24" text-anchor="middle" font-size="15" font-weight="bold">&#167;7d Performance vs Memory gap (SIMULATED learners)</text><text x="360.0" y="44" text-anchor="middle" font-size="11" fill="#555">recall (green) vs transfer (orange) per topic &#183; mean gap &#916;=0.204 &#183; N_cards=35 &#183; N_transfer=70 &#183; learners=400</text><text x="242" y="83" text-anchor="end" font-size="10" fill="#333">calc::limits</text><rect x="250" y="70" width="348.0" height="10" fill="#2e7d32" fill-opacity="0.85"/><rect x="250" y="82" width="275.8" height="10" fill="#e07b1a" fill-opacity="0.9"/><text x="636" y="87" font-size="10" fill="#333">&#916;=0.19</text><text x="242" y="117" text-anchor="end" font-size="10" fill="#333">calc::multivar</text><rect x="250" y="104" width="350.6" height="10" fill="#2e7d32" fill-opacity="0.85"/><rect x="250" y="116" width="257.9" height="10" fill="#e07b1a" fill-opacity="0.9"/><text x="636" y="121" font-size="10" fill="#333">&#916;=0.24</text><text x="242" y="151" text-anchor="end" font-size="10" fill="#333">calc::sequences_series</text><rect x="250" y="138" width="343.6" height="10" fill="#2e7d32" fill-opacity="0.85"/><rect x="250" y="150" width="254.9" height="10" fill="#e07b1a" fill-opacity="0.9"/><text x="636" y="155" font-size="10" fill="#333">&#916;=0.23</text><text x="242" y="185" text-anchor="end" font-size="10" fill="#333">calc::differentiation</text><rect x="250" y="172" width="344.5" height="10" fill="#2e7d32" fill-opacity="0.85"/><rect x="250" y="184" width="264.0" height="10" fill="#e07b1a" fill-opacity="0.9"/><text x="636" y="189" font-size="10" fill="#333">&#916;=0.21</text><text x="242" y="219" text-anchor="end" font-size="10" fill="#333">calc::integration</text><rect x="250" y="206" width="339.2" height="10" fill="#2e7d32" fill-opacity="0.85"/><rect x="250" y="218" width="280.4" height="10" fill="#e07b1a" fill-opacity="0.9"/><text x="636" y="223" font-size="10" fill="#333">&#916;=0.15</text><text x="242" y="253" text-anchor="end" font-size="10" fill="#333">la::eigen</text><rect x="250" y="240" width="342.6" height="10" fill="#2e7d32" fill-opacity="0.85"/><rect x="250" y="252" width="244.9" height="10" fill="#e07b1a" fill-opacity="0.9"/><text x="636" y="257" font-size="10" fill="#333">&#916;=0.26</text><text x="242" y="287" text-anchor="end" font-size="10" fill="#333">la::linear_maps</text><rect x="250" y="274" width="343.3" height="10" fill="#2e7d32" fill-opacity="0.85"/><rect x="250" y="286" width="255.6" height="10" fill="#e07b1a" fill-opacity="0.9"/><text x="636" y="291" font-size="10" fill="#333">&#916;=0.23</text><text x="242" y="321" text-anchor="end" font-size="10" fill="#333">la::matrices</text><rect x="250" y="308" width="346.0" height="10" fill="#2e7d32" fill-opacity="0.85"/><rect x="250" y="320" width="292.5" height="10" fill="#e07b1a" fill-opacity="0.9"/><text x="636" y="325" font-size="10" fill="#333">&#916;=0.14</text><text x="242" y="355" text-anchor="end" font-size="10" fill="#333">la::vector_spaces</text><rect x="250" y="342" width="343.7" height="10" fill="#2e7d32" fill-opacity="0.85"/><rect x="250" y="354" width="277.9" height="10" fill="#e07b1a" fill-opacity="0.9"/><text x="636" y="359" font-size="10" fill="#333">&#916;=0.17</text><text x="250" y="402" font-size="10" fill="#777">bar length = mean accuracy in [0,1]; SIMULATED (no real learner attempts) &#183; item difficulty from the authored transfer set</text></svg>